<svg width="50" height="50" viewBox="0 0 50 50" fill="none" xmlns="http://www.w3.org/2000/svg">
<path d="M38.8769 43.6853H38.1231C38.1231 43.6773 38.1194 43.6693 38.1178 43.6618L38.0972 43.5696C38.084 43.5089 38.0697 43.4488 38.0549 43.3891C38.0486 43.3611 38.0417 43.333 38.0348 43.305C38.0153 43.2263 37.9946 43.1476 37.9735 43.0689L37.9672 43.0463C37.9439 42.9611 37.9196 42.8763 37.8942 42.7917L37.8688 42.71C37.8514 42.6519 37.8329 42.5943 37.816 42.5366C37.8059 42.5051 37.7954 42.474 37.7853 42.4429C37.7668 42.3873 37.7478 42.3317 37.7282 42.2765C37.7182 42.2475 37.7076 42.2179 37.6975 42.1893C37.6729 42.1202 37.6475 42.0515 37.6214 41.9833C37.6156 41.9688 37.6109 41.9548 37.605 41.9402C37.5744 41.86 37.5421 41.7804 37.5093 41.7007C37.4977 41.6716 37.4856 41.643 37.4734 41.6145C37.4512 41.5643 37.429 41.5092 37.4063 41.4571L37.3634 41.3604C37.3412 41.3102 37.3185 41.2601 37.2953 41.21C37.281 41.1789 37.2662 41.1474 37.2514 41.1163C37.2244 41.0587 37.1985 41.0015 37.1684 40.9449C37.1573 40.9233 37.1472 40.9013 37.1361 40.8792C37.0986 40.8046 37.06 40.7289 37.0209 40.6567L36.968 40.563L36.8935 40.4272L36.8353 40.3269C36.811 40.2848 36.7867 40.2427 36.7619 40.2006C36.7423 40.1665 36.7222 40.1325 36.7021 40.1004C36.6746 40.0548 36.6492 40.0102 36.6191 39.9651L36.543 39.8428C36.507 39.7866 36.4711 39.73 36.4341 39.6744C36.4108 39.6393 36.3876 39.6047 36.3638 39.5701C36.34 39.5356 36.3141 39.496 36.2887 39.4594C36.2633 39.4228 36.2359 39.3862 36.2126 39.3501C36.1893 39.314 36.164 39.2815 36.1391 39.2499C36.1143 39.2183 36.0862 39.1762 36.0593 39.1396L35.9847 39.0394C35.9319 38.9727 35.8832 38.9061 35.8314 38.8389L35.759 38.7472C35.7284 38.7086 35.6966 38.6705 35.6654 38.6324L35.5957 38.5482C35.5634 38.5096 35.5306 38.4715 35.4979 38.433L35.4291 38.3538L35.3266 38.2375L35.2658 38.1703C35.1394 38.0315 35.0099 37.8947 34.8772 37.7614L34.8191 37.7027L34.6975 37.584L34.6378 37.5268C34.5955 37.4862 34.5532 37.4461 34.5104 37.4065L34.4665 37.3664C34.3169 37.2286 34.163 37.0943 34.0066 36.9655L33.9637 36.9299C33.9155 36.8898 33.8668 36.8502 33.8178 36.8111L33.7692 36.772C33.7163 36.732 33.6682 36.6924 33.6169 36.6528L33.591 36.6332C33.4182 36.5009 33.2411 36.3721 33.0624 36.2483L33.0376 36.2308C32.981 36.1922 32.9244 36.1541 32.8673 36.1165L32.8298 36.0919C32.7717 36.0533 32.713 36.0158 32.6543 35.9782L32.6442 35.9722C32.4497 35.8489 32.2515 35.7308 32.0495 35.6178L32.0416 35.6128C31.9776 35.5772 31.9137 35.5426 31.8497 35.5081L31.8217 35.493C31.4812 35.3109 31.1316 35.1439 30.7729 34.9918L30.7506 34.9823C30.656 34.9422 30.5609 34.9036 30.4647 34.8655H32.3567C32.6649 34.8655 32.9149 34.5293 32.9149 34.1138C32.9149 33.6983 32.6649 33.362 32.3567 33.362H31.7931C31.828 33.2778 31.8666 33.1826 31.9084 33.0753C32.4412 32.7606 33.3791 32.09 34.3095 30.8581L34.3169 30.8486C34.3874 30.7564 34.4566 30.661 34.5246 30.5624L34.5384 30.5428C34.606 30.4461 34.6737 30.3464 34.7403 30.2421L34.7583 30.2146C34.79 30.1645 34.8217 30.1143 34.8534 30.0642C34.8534 30.0642 34.8534 30.0602 34.8571 30.0577C34.8899 30.0076 34.9222 29.9525 34.9544 29.8988L34.975 29.8642C35.0025 29.8181 35.0305 29.771 35.0575 29.7234C35.0628 29.7149 35.0681 29.7064 35.0728 29.6974C35.104 29.6432 35.1352 29.5881 35.1659 29.5325L35.187 29.4939C35.2124 29.4478 35.2372 29.4012 35.2621 29.354C35.2695 29.341 35.2769 29.3275 35.2838 29.3139C35.3134 29.2573 35.343 29.2002 35.3726 29.142L35.3932 29.1014C35.4165 29.0543 35.4402 29.0062 35.4635 28.9581L35.4889 28.908C35.5174 28.8489 35.5454 28.7887 35.5735 28.7281L35.5909 28.6895C35.6142 28.6394 35.6369 28.5892 35.6596 28.5391L35.6866 28.479C35.713 28.4183 35.7395 28.3572 35.7648 28.2955C35.7696 28.2845 35.7743 28.273 35.7786 28.262C35.8024 28.2053 35.8256 28.1477 35.8489 28.0896L35.8753 28.0234C35.897 27.9683 35.9187 27.9126 35.9398 27.857L35.9557 27.8149C35.9805 27.7488 36.0048 27.6811 36.0291 27.6144L36.0545 27.5433C36.0736 27.4901 36.0921 27.436 36.1106 27.3819C36.1174 27.3618 36.1243 27.3418 36.1306 27.3217C36.1539 27.2526 36.1772 27.1819 36.1999 27.1113C36.2073 27.0867 36.2152 27.0611 36.2226 27.0381L36.2755 26.8732C36.2824 26.8491 36.2898 26.8231 36.2966 26.8015C36.3183 26.7288 36.34 26.6547 36.3606 26.58C36.3675 26.5564 36.3738 26.5324 36.3802 26.5083C36.396 26.4507 36.4119 26.3931 36.4272 26.3344C36.4341 26.3079 36.441 26.2813 36.4484 26.2547C36.4679 26.1775 36.4875 26.0999 36.5065 26.0212L36.5224 25.9555C36.5372 25.8929 36.552 25.8297 36.5663 25.7661L36.5853 25.6809C36.6033 25.5992 36.6212 25.5175 36.6381 25.4343C36.6418 25.4183 36.645 25.4017 36.6482 25.3842C36.663 25.3125 36.6773 25.2398 36.691 25.1672C36.6968 25.1376 36.7021 25.108 36.7079 25.0785C36.7217 25.0038 36.7349 24.9281 36.7481 24.8534C36.7508 24.8374 36.7539 24.8219 36.7566 24.8063C36.7714 24.7181 36.7858 24.6292 36.7999 24.5397C36.8047 24.5096 36.8094 24.4795 36.8137 24.449C36.8248 24.3763 36.8353 24.3031 36.8459 24.229L36.8554 24.1608C36.8681 24.0686 36.8803 23.9759 36.8919 23.8816C36.8956 23.8521 36.8988 23.8225 36.9025 23.7924C36.9116 23.7176 36.9201 23.6424 36.9278 23.5669C36.931 23.5398 36.9342 23.5133 36.9368 23.4862C36.9471 23.3893 36.9566 23.2916 36.9654 23.193C36.9654 23.1654 36.9701 23.1379 36.9723 23.1098C36.9791 23.0306 36.986 22.9509 36.9918 22.8707C36.9918 22.8412 36.9966 22.8116 36.9987 22.782C37.0061 22.6798 37.013 22.5769 37.0193 22.4733C37.0193 22.4498 37.0193 22.4232 37.023 22.4021C37.0278 22.3159 37.0325 22.2292 37.0362 22.142C37.0362 22.1105 37.0362 22.0789 37.0404 22.0473C37.0447 21.9396 37.0489 21.8313 37.0521 21.7215C37.0521 21.7065 37.0521 21.691 37.0521 21.6754C37.0549 21.5779 37.057 21.4793 37.0584 21.3797C37.0584 21.3472 37.0584 21.3146 37.0584 21.282C37.0584 21.1751 37.0584 21.0675 37.0584 20.9592V20.9342C37.0584 20.8189 37.0584 20.7021 37.0584 20.5834V20.4831C37.0584 20.3829 37.0542 20.2776 37.0515 20.1734V20.1168C37.0478 19.9965 37.0431 19.8747 37.0383 19.7524C37.0383 19.7208 37.0352 19.6887 37.0341 19.6572C37.0295 19.5543 37.0242 19.4507 37.0182 19.3464C37.0182 19.3209 37.0182 19.2963 37.014 19.2688C37.0066 19.1435 36.9985 19.0172 36.9897 18.8899L36.9834 18.8012C36.9754 18.6949 36.9675 18.5881 36.9585 18.4804C36.9585 18.4493 36.9537 18.4182 36.9511 18.3872C36.94 18.2569 36.9278 18.1251 36.9152 17.9927C36.9152 17.9677 36.9099 17.9426 36.9078 17.9171C36.8967 17.8043 36.8845 17.6905 36.8723 17.5758C36.8686 17.5412 36.8649 17.5071 36.8607 17.4725C36.8459 17.3362 36.83 17.1994 36.8131 17.0605C36.8131 17.0435 36.8084 17.0265 36.8063 17.0104C36.7911 16.8861 36.7751 16.7612 36.7582 16.6355C36.7529 16.5985 36.7481 16.5614 36.7428 16.5243C36.7231 16.3819 36.7028 16.2384 36.682 16.0938C34.5675 1.8231 19.5825 4.13906 19.5825 4.13906L20.0625 7.2053L11 16.2817L11.396 19.7865L14.829 21.7912C14.982 21.4224 15.1785 21.0712 15.4147 20.7442C17.6297 18.322 21.9271 16.4205 23.1572 16.0261C23.4036 15.9474 23.5437 15.9078 23.5437 15.9078C17.6593 23.1279 18.3286 31.3994 18.5908 33.371C18.318 33.4211 18.1071 33.7334 18.1071 34.1143C18.1071 34.5293 18.3571 34.866 18.6653 34.866H20.5573C17.4107 36.1148 14.9129 38.4931 13.6094 41.4817C13.6078 41.4857 13.6061 41.4898 13.6041 41.4937C13.5079 41.7155 13.4184 41.9406 13.3355 42.1688C13.3357 42.1711 13.3357 42.1735 13.3355 42.1758C13.3133 42.2379 13.2917 42.3001 13.2705 42.3627C13.2626 42.3853 13.2547 42.4078 13.2473 42.4309C13.2282 42.487 13.2106 42.5437 13.1944 42.6008C13.1849 42.6299 13.1759 42.6594 13.1669 42.6885C13.15 42.7421 13.1336 42.7962 13.1177 42.8504L13.0892 42.9506C13.0744 43.0007 13.0596 43.0544 13.0459 43.1065C13.0358 43.1436 13.0263 43.1802 13.0168 43.2172C13.0041 43.2674 12.9909 43.3175 12.9787 43.3676C12.9666 43.4177 12.9549 43.4678 12.9433 43.521C12.9317 43.5741 12.9169 43.6362 12.9042 43.6944H12.1498C12.0047 43.6913 11.8605 43.7158 11.7255 43.7663C11.5906 43.8169 11.4676 43.8925 11.3639 43.9887C11.2602 44.0849 11.1778 44.1997 11.1215 44.3265C11.0652 44.4533 11.0363 44.5895 11.0363 44.7271C11.0363 44.8646 11.0652 45.0008 11.1215 45.1276C11.1778 45.2544 11.2602 45.3693 11.3639 45.4655C11.4676 45.5616 11.5906 45.6372 11.7255 45.6878C11.8605 45.7383 12.0047 45.7628 12.1498 45.7597H38.8865C39.0315 45.7628 39.1758 45.7383 39.3107 45.6878C39.4457 45.6372 39.5686 45.5616 39.6724 45.4655C39.7761 45.3693 39.8585 45.2544 39.9148 45.1276C39.971 45.0008 40 44.8646 40 44.7271C40 44.5895 39.971 44.4533 39.9148 44.3265C39.8585 44.1997 39.7761 44.0849 39.6724 43.9887C39.5686 43.8925 39.4457 43.8169 39.3107 43.7663C39.1758 43.7158 39.0315 43.6913 38.8865 43.6944L38.8769 43.6853Z" fill="#595653"/>
</svg>
