<svg width="255" height="24" viewBox="0 0 255 24" fill="none" xmlns="http://www.w3.org/2000/svg">
<path d="M103.182 4.277H93V6.887H96.717V18.117H99.445V6.886H103.182V4.277ZM117.635 4.277H114.551L111.546 10.05L108.54 4.277H105.456L110.181 12.719V18.116H112.89V12.719L117.635 4.277ZM126.099 4.277H120.939V18.117H123.667V13.569H126.099C128.768 13.569 130.824 11.513 130.824 8.923C130.824 6.333 128.768 4.277 126.099 4.277ZM126.099 11.018H123.667V6.829H126.099C127.265 6.829 128.115 7.718 128.115 8.924C128.115 10.11 127.265 11.018 126.099 11.018ZM141.025 18.393C145.019 18.393 148.221 15.23 148.221 11.196C148.221 7.143 145.019 4 141.025 4C137.031 4 133.848 7.143 133.848 11.196C133.848 15.23 137.031 18.393 141.025 18.393ZM141.025 15.723C138.514 15.723 136.557 13.846 136.557 11.196C136.557 8.527 138.514 6.649 141.025 6.649C143.536 6.649 145.493 8.527 145.493 11.196C145.493 13.846 143.536 15.723 141.025 15.723ZM165.699 10.682H158.759V13.094H162.95C162.476 14.676 161.092 15.724 158.917 15.724C156.031 15.724 154.192 13.786 154.192 11.216C154.192 8.586 156.09 6.649 158.719 6.649C160.4 6.649 161.804 7.459 162.436 8.567L164.769 7.222C163.603 5.325 161.369 4 158.739 4C154.607 4 151.483 7.203 151.483 11.216C151.483 15.17 154.568 18.393 158.897 18.393C162.871 18.393 165.699 15.743 165.699 11.75V10.682ZM177.208 18.116H180.154L177.09 12.896C178.671 12.166 179.759 10.603 179.759 8.863C179.759 6.333 177.702 4.277 175.152 4.277H169.616V18.117H172.345V13.312H174.421L177.208 18.116ZM172.345 6.827H175.152C176.18 6.827 177.03 7.717 177.03 8.864C177.03 10.01 176.18 10.92 175.152 10.92H172.345V6.827ZM192.634 18.116H195.6L190.736 4.276H187.356L182.512 18.116H185.458L186.288 15.625H191.804L192.634 18.116ZM187.158 13.075L189.056 7.42L190.954 13.075H187.158ZM204.081 4.277H198.921V18.117H201.649V13.569H204.081C206.75 13.569 208.806 11.513 208.806 8.923C208.806 6.333 206.75 4.277 204.081 4.277ZM204.081 11.018H201.649V6.829H204.081C205.248 6.829 206.098 7.718 206.098 8.924C206.098 10.11 205.248 11.018 204.081 11.018ZM220.428 4.277V9.773H215.288V4.277H212.56V18.117H215.288V12.383H220.428V18.116H223.137V4.276L220.428 4.277ZM238.638 4.277H235.554L232.549 10.05L229.543 4.277H226.459L231.184 12.719V18.116H233.893V12.719L238.638 4.277Z" fill="#393939"/>
<path d="M4.22 4.2C4.98 4.2 5.66667 4.3 6.28 4.5C6.90667 4.7 7.43333 4.99333 7.86 5.38C8.3 5.75333 8.63333 6.20667 8.86 6.74C9.1 7.27333 9.22 7.88 9.22 8.56C9.22 9.24 9.1 9.86 8.86 10.42C8.63333 10.98 8.3 11.46 7.86 11.86C7.42 12.2467 6.88 12.5533 6.24 12.78C5.61333 12.9933 4.9 13.1 4.1 13.1H2.68V18.2H0V4.2H4.22ZM3.96 10.78C4.82667 10.78 5.46667 10.5733 5.88 10.16C6.29333 9.74667 6.5 9.24 6.5 8.64C6.5 8.34667 6.44667 8.07333 6.34 7.82C6.24667 7.55333 6.09333 7.32667 5.88 7.14C5.68 6.94 5.41333 6.78667 5.08 6.68C4.76 6.56 4.37333 6.5 3.92 6.5H2.68V10.78H3.96Z" fill="#EE406D"/>
<path d="M15.7644 4.2C16.511 4.2 17.1844 4.3 17.7844 4.5C18.3977 4.68667 18.9177 4.96 19.3444 5.32C19.771 5.68 20.0977 6.12667 20.3244 6.66C20.5644 7.18 20.6844 7.77333 20.6844 8.44C20.6844 9.37333 20.4577 10.1733 20.0044 10.84C19.551 11.5067 18.9444 12.0067 18.1844 12.34L22.1444 17.78V18.2H19.2444L15.2844 12.76H14.1644V18.2H11.4844V4.2H15.7644ZM15.6844 10.46C16.4044 10.46 16.9577 10.2733 17.3444 9.9C17.731 9.52667 17.9244 9.04667 17.9244 8.46C17.9244 7.9 17.7377 7.43333 17.3644 7.06C16.991 6.68667 16.4444 6.5 15.7244 6.5H14.1644V10.46H15.6844Z" fill="#EE406D"/>
<path d="M29.9175 16.06C30.5708 16.06 31.1775 15.9467 31.7375 15.72C32.3108 15.4933 32.8042 15.1733 33.2175 14.76C33.6308 14.3333 33.9508 13.82 34.1775 13.22C34.4175 12.6067 34.5375 11.9267 34.5375 11.18C34.5375 10.4467 34.4175 9.78 34.1775 9.18C33.9508 8.56667 33.6308 8.05333 33.2175 7.64C32.8175 7.21333 32.3308 6.88667 31.7575 6.66C31.1975 6.42 30.5842 6.3 29.9175 6.3C29.2508 6.3 28.6375 6.41333 28.0775 6.64C27.5175 6.86667 27.0308 7.19333 26.6175 7.62C26.2042 8.04667 25.8842 8.56 25.6575 9.16C25.4308 9.76 25.3175 10.4333 25.3175 11.18C25.3175 11.9267 25.4308 12.6 25.6575 13.2C25.8842 13.8 26.1975 14.3133 26.5975 14.74C27.0108 15.1667 27.4975 15.4933 28.0575 15.72C28.6308 15.9467 29.2508 16.06 29.9175 16.06ZM29.9175 18.38C28.7975 18.38 27.7842 18.2067 26.8775 17.86C25.9708 17.5 25.1975 17 24.5575 16.36C23.9175 15.72 23.4242 14.96 23.0775 14.08C22.7308 13.2 22.5575 12.2333 22.5575 11.18C22.5575 10.1667 22.7308 9.22667 23.0775 8.36C23.4242 7.48 23.9175 6.72 24.5575 6.08C25.1975 5.42667 25.9708 4.92 26.8775 4.56C27.7842 4.18667 28.7975 4 29.9175 4C31.0108 4 32.0108 4.18 32.9175 4.54C33.8242 4.88667 34.6042 5.38 35.2575 6.02C35.9108 6.66 36.4108 7.42 36.7575 8.3C37.1175 9.18 37.2975 10.1467 37.2975 11.2C37.2975 12.2133 37.1242 13.16 36.7775 14.04C36.4308 14.9067 35.9308 15.6667 35.2775 16.32C34.6375 16.96 33.8642 17.4667 32.9575 17.84C32.0508 18.2 31.0375 18.38 29.9175 18.38Z" fill="#EE406D"/>
<path d="M39.1317 18.3C38.9051 18.3 38.7184 18.2867 38.5717 18.26C38.4384 18.2333 38.3184 18.2067 38.2117 18.18V15.82C38.3317 15.86 38.4651 15.8933 38.6117 15.92C38.7717 15.9333 38.9184 15.94 39.0517 15.94C39.6784 15.94 40.1251 15.7533 40.3917 15.38C40.6717 15.0067 40.8117 14.42 40.8117 13.62V4.2H43.5117V13.74C43.5117 15.3 43.1184 16.4533 42.3317 17.2C41.5584 17.9333 40.4917 18.3 39.1317 18.3Z" fill="#EE406D"/>
<path d="M46.582 4.2H54.382V6.5H49.262V9.7H53.482V11.94H49.262V15.9H54.582V18.2H46.582V4.2Z" fill="#EE406D"/>
<path d="M63.495 18.38C62.3483 18.38 61.3083 18.2067 60.375 17.86C59.455 17.5 58.6683 17.0067 58.015 16.38C57.375 15.7533 56.875 15 56.515 14.12C56.1683 13.24 55.995 12.28 55.995 11.24C55.995 10.2 56.175 9.24 56.535 8.36C56.895 7.46667 57.4017 6.7 58.055 6.06C58.7083 5.42 59.495 4.92 60.415 4.56C61.335 4.18667 62.355 4 63.475 4C64.435 4 65.2817 4.12667 66.015 4.38C66.7617 4.63333 67.435 4.97333 68.035 5.4L66.955 7.36C66.4883 7.02667 65.975 6.78 65.415 6.62C64.855 6.44667 64.2883 6.36 63.715 6.36C63.0083 6.36 62.355 6.48 61.755 6.72C61.155 6.94667 60.635 7.27333 60.195 7.7C59.755 8.11333 59.4083 8.62 59.155 9.22C58.915 9.80667 58.795 10.4533 58.795 11.16C58.795 11.8933 58.915 12.56 59.155 13.16C59.4083 13.7467 59.755 14.2533 60.195 14.68C60.6483 15.0933 61.1817 15.4133 61.795 15.64C62.4217 15.8667 63.115 15.98 63.875 15.98C64.4083 15.98 64.975 15.9067 65.575 15.76C66.175 15.6 66.7217 15.3 67.215 14.86L68.355 16.78C67.8617 17.22 67.2017 17.6 66.375 17.92C65.5617 18.2267 64.6017 18.38 63.495 18.38Z" fill="#EE406D"/>
<path d="M72.4902 6.5H69.1302V4.2H78.4902V6.5H75.1702V18.2H72.4902V6.5Z" fill="#EE406D"/>
<path d="M88 11.5C88 12.8807 86.8807 14 85.5 14C84.1193 14 83 12.8807 83 11.5C83 10.1193 84.1193 9 85.5 9C86.8807 9 88 10.1193 88 11.5Z" fill="#EE406D"/>
</svg>
